
      <svg
        width="300"
        height="405"
        viewBox="0 0 300 405"
        fill="none"
        xmlns="http://www.w3.org/2000/svg"
        role="img"
        aria-labelledby="descId"
      >
        <title id="titleId"></title>
        <desc id="descId"></desc>
        <style>
          .header {
            font: 600 18px 'Segoe UI', Ubuntu, Sans-Serif;
            fill: #2f80ed;
            animation: fadeInAnimation 0.8s ease-in-out forwards;
          }
          @supports(-moz-appearance: auto) {
            /* Selector detects Firefox */
            .header { font-size: 15.5px; }
          }
          .lang-name { font: 400 11px 'Segoe UI', Ubuntu, Sans-Serif; fill: #434d58 }

          
    /* Animations */
    @keyframes scaleInAnimation {
      from {
        transform: translate(-5px, 5px) scale(0);
      }
      to {
        transform: translate(-5px, 5px) scale(1);
      }
    }
    @keyframes fadeInAnimation {
      from {
        opacity: 0;
      }
      to {
        opacity: 1;
      }
    }
  
          * { animation-duration: 0s !important; animation-delay: 0s !important; }
        </style>

        

        <rect
          data-testid="card-bg"
          x="0.5"
          y="0.5"
          rx="4.5"
          height="99%"
          stroke="#e4e2e2"
          width="299"
          fill="#fffefe"
          stroke-opacity="1"
        />

        
      <g
        data-testid="card-title"
        transform="translate(25, 35)"
      >
        <g transform="translate(0, 0)">
      <text
        x="0"
        y="0"
        class="header"
        data-testid="header"
      >Most Used Languages</text>
    </g>
      </g>
    

        <g
          data-testid="main-card-body"
          transform="translate(0, 55)"
        >
          
    <svg data-testid="lang-items" x="25">
      <g transform="translate(0, 0)">
    <text data-testid="lang-name" x="2" y="15" class="lang-name">C</text>
    <text x="215" y="34" class="lang-name">28.71%</text>
    
    <svg width="205" x="0" y="25">
      <rect rx="5" ry="5" x="0" y="0" width="205" height="8" fill="#ddd"></rect>
      <rect
          height="8"
          fill="#555555"
          rx="5" ry="5" x="0" y="0" 
          data-testid="lang-progress"
          width="28.71%"
      >
      </rect>
    </svg>
  
  </g><g transform="translate(0, 40)">
    <text data-testid="lang-name" x="2" y="15" class="lang-name">Java</text>
    <text x="215" y="34" class="lang-name">26.02%</text>
    
    <svg width="205" x="0" y="25">
      <rect rx="5" ry="5" x="0" y="0" width="205" height="8" fill="#ddd"></rect>
      <rect
          height="8"
          fill="#b07219"
          rx="5" ry="5" x="0" y="0" 
          data-testid="lang-progress"
          width="26.02%"
      >
      </rect>
    </svg>
  
  </g><g transform="translate(0, 80)">
    <text data-testid="lang-name" x="2" y="15" class="lang-name">JavaScript</text>
    <text x="215" y="34" class="lang-name">21.83%</text>
    
    <svg width="205" x="0" y="25">
      <rect rx="5" ry="5" x="0" y="0" width="205" height="8" fill="#ddd"></rect>
      <rect
          height="8"
          fill="#f1e05a"
          rx="5" ry="5" x="0" y="0" 
          data-testid="lang-progress"
          width="21.83%"
      >
      </rect>
    </svg>
  
  </g><g transform="translate(0, 120)">
    <text data-testid="lang-name" x="2" y="15" class="lang-name">C++</text>
    <text x="215" y="34" class="lang-name">16.03%</text>
    
    <svg width="205" x="0" y="25">
      <rect rx="5" ry="5" x="0" y="0" width="205" height="8" fill="#ddd"></rect>
      <rect
          height="8"
          fill="#f34b7d"
          rx="5" ry="5" x="0" y="0" 
          data-testid="lang-progress"
          width="16.03%"
      >
      </rect>
    </svg>
  
  </g><g transform="translate(0, 160)">
    <text data-testid="lang-name" x="2" y="15" class="lang-name">C#</text>
    <text x="215" y="34" class="lang-name">6.65%</text>
    
    <svg width="205" x="0" y="25">
      <rect rx="5" ry="5" x="0" y="0" width="205" height="8" fill="#ddd"></rect>
      <rect
          height="8"
          fill="#178600"
          rx="5" ry="5" x="0" y="0" 
          data-testid="lang-progress"
          width="6.65%"
      >
      </rect>
    </svg>
  
  </g><g transform="translate(0, 200)">
    <text data-testid="lang-name" x="2" y="15" class="lang-name">Python</text>
    <text x="215" y="34" class="lang-name">0.68%</text>
    
    <svg width="205" x="0" y="25">
      <rect rx="5" ry="5" x="0" y="0" width="205" height="8" fill="#ddd"></rect>
      <rect
          height="8"
          fill="#3572A5"
          rx="5" ry="5" x="0" y="0" 
          data-testid="lang-progress"
          width="2%"
      >
      </rect>
    </svg>
  
  </g><g transform="translate(0, 240)">
    <text data-testid="lang-name" x="2" y="15" class="lang-name">Shell</text>
    <text x="215" y="34" class="lang-name">0.06%</text>
    
    <svg width="205" x="0" y="25">
      <rect rx="5" ry="5" x="0" y="0" width="205" height="8" fill="#ddd"></rect>
      <rect
          height="8"
          fill="#89e051"
          rx="5" ry="5" x="0" y="0" 
          data-testid="lang-progress"
          width="2%"
      >
      </rect>
    </svg>
  
  </g><g transform="translate(0, 280)">
    <text data-testid="lang-name" x="2" y="15" class="lang-name">Batchfile</text>
    <text x="215" y="34" class="lang-name">0.04%</text>
    
    <svg width="205" x="0" y="25">
      <rect rx="5" ry="5" x="0" y="0" width="205" height="8" fill="#ddd"></rect>
      <rect
          height="8"
          fill="#C1F12E"
          rx="5" ry="5" x="0" y="0" 
          data-testid="lang-progress"
          width="2%"
      >
      </rect>
    </svg>
  
  </g>
    </svg>
  
        </g>
      </svg>
    